<svg width="38" height="30" viewBox="0 0 38 30" fill="none" xmlns="http://www.w3.org/2000/svg">
<g clip-path="url(#clip0)">
<path d="M9.41175 11.249C4.64116 11.249 0.735278 14.6767 0.00586665 19.1416C-0.0411922 19.4228 0.199984 19.6865 0.494102 19.6865H18.3353C18.6294 19.6865 18.8706 19.4228 18.8235 19.1416C18.0882 14.6767 14.1823 11.249 9.41175 11.249ZM18.3294 21.5615H0.494102C0.199984 21.5615 -0.0411922 21.8252 0.00586665 22.1064C0.735278 26.5712 4.64116 29.999 9.41175 29.999C14.1823 29.999 18.0882 26.5712 18.8176 22.1064C18.8647 21.8252 18.6235 21.5615 18.3294 21.5615ZM34.9059 2.72945C31.5823 -0.581095 26.4235 -0.868204 22.7353 1.79195C22.5 1.96187 22.4823 2.31344 22.6882 2.51266L35.1176 14.8994C35.3235 15.1045 35.6765 15.0869 35.8412 14.8525C38.5176 11.1787 38.2294 6.04 34.9059 2.72945ZM21.3529 3.84859C21.147 3.64351 20.7941 3.66109 20.6294 3.89547C17.9588 7.5693 18.247 12.708 21.5647 16.0185C24.8882 19.3291 30.047 19.6162 33.7353 16.9502C33.9706 16.7802 33.9882 16.4287 33.7823 16.2295L21.3529 3.84859Z" fill="#DF0615"/>
</g>
<defs>
<clipPath id="clip0">
<rect width="37.6471" height="30" fill="white"/>
</clipPath>
</defs>
</svg>
