<?xml version="1.0" encoding="utf-8"?>
<!-- Generator: Adobe Illustrator 15.1.0, SVG Export Plug-In . SVG Version: 6.00 Build 0)  -->
<!DOCTYPE svg PUBLIC "-//W3C//DTD SVG 1.1//EN" "http://www.w3.org/Graphics/SVG/1.1/DTD/svg11.dtd">
<svg version="1.1" id="圖層_1" xmlns="http://www.w3.org/2000/svg" xmlns:xlink="http://www.w3.org/1999/xlink" x="0px" y="0px"
	 width="1029px" height="116px" viewBox="0 0 1029 116" enable-background="new 0 0 1029 116" xml:space="preserve">
<polygon fill="#DF0615" points="193.5,13 217.03,110 0,110 0,114 1029,114 1029,13 "/>
<path fill="#FFFFFF" d="M240.4,78.2c-0.319,6.479-1.04,13.6-2.8,18.159c2.16,0.561,6.24,1.841,8.24,2.881
	c1.6-4.881,2.72-12.48,3.12-19.68L240.4,78.2z M249.6,79.48c0.8,5.279,1.601,12.16,1.68,16.8l8.24-2.16
	c-0.319-4.56-1.12-11.28-2.16-16.56L249.6,79.48z M258.32,77.48c1.601,4.8,3.44,11.119,4.16,15.279l7.681-2.88
	c-0.881-4-2.721-10.08-4.561-14.88L258.32,77.48z M253.12,65c1.52-1.84,3.04-3.76,4.56-5.68c0.64,1.52,1.36,3.199,1.92,4.88
	L253.12,65z M258.88,57.64c3.92-5.36,7.52-11.12,10.399-16.72l-8.56-5.44c-1.6,3.84-3.68,7.76-5.68,11.36l-4.32,0.24
	c3.76-5.52,7.36-12.16,10-18.4l-9.52-3.84c-2.48,8.32-7.2,17.04-8.801,19.28c-1.52,2.32-2.88,3.76-4.479,4.24
	c1.12,2.56,2.72,7.12,3.2,9.04c1.199-0.56,2.96-1.04,8.319-1.68c-1.92,2.8-3.52,4.88-4.479,5.921c-2.561,3.039-4.24,4.879-6.4,5.439
	c1.12,2.561,2.72,7.279,3.2,9.2c1.84-0.96,4.8-1.761,20.16-4.24c0.16,1.04,0.399,2,0.479,2.88l8-3.279
	c-0.64-4.4-3.12-11.041-5.76-16.241L258.88,57.64z M283.44,79.8h7.681V85h-7.681V79.8z M285.92,38.84
	c1.359-3.12,2.64-6.32,3.68-9.36c1.44,2.8,3.04,6.48,4.08,9.36H285.92z M291.12,54.36h-7.681v-5.12h7.681V54.36z M291.12,69.48
	h-7.681V64.68h7.681V69.48z M314.079,85h-12.64v-5.2h10V69.48h-10V64.68h9.92V54.36h-9.92v-5.12h11.6v-10.4H298.88l5.68-2.72
	c-1.2-3.04-3.439-7.68-5.439-11.28l-9.28,4.08l0.24-0.8l-10.96-3.36c-2.4,9.28-7.601,21.76-13.601,28.88
	c1.521,2.88,3.76,8.32,4.8,11.44c0.881-1.04,1.761-2.16,2.641-3.28v38.96h10.479v-5.04h30.64V85z M366.24,87.08V73.32h22.96v-11.2
	h-22.96V49.88h26.16V38.52h-26.16V24.6h-12.16v13.92H343.84c1.359-3.44,2.56-6.88,3.52-10.4l-12.08-2.72
	c-2.72,10.8-7.84,21.76-14,28.32c2.96,1.6,8.16,5.04,10.48,7.04c2.399-2.96,4.72-6.72,6.96-10.88h15.359v12.24h-20.72v11.2h20.72
	v13.76H323.84v11.359h72.8V87.08H366.24z M440.24,89c0,0.88-0.399,1.12-1.76,1.12c-1.04,0.08-4.16,0-7.28-0.08
	c1.36-0.96,2.561-2,3.681-3.04l-9.761-3.84c3.601-0.24,8.48-0.561,15.12-0.88V89z M438.48,61.72c2.64-1.04,5.12-2.159,7.44-3.28
	l-1.841-1.6H461.6c-2.64,1.52-5.6,2.96-8.64,4.32L438.48,61.72z M468.56,80.76c1.76,1.68,3.2,3.2,4.24,4.48l9.279-5.68
	C478.72,75.8,471.84,70.359,466.96,66.68l-8.721,5.04c0.721,0.561,1.521,1.2,2.24,1.841l-17.36,0.64
	c9.521-3.04,18.96-6.8,27.601-11.12l-7.28-6.24h18.16V48.2h-32v-1.92h24.08V38.2H449.6v-1.92h27.92v-8.24H449.6v-3.52h-11.68v3.52
	h-27.44v8.24h27.44v1.92h-23.36v8.08h23.36v1.92h-31.28v8.64h23.04c-3.601,1.6-6.8,2.721-8.32,3.28
	c-2.479,0.88-4.399,1.44-6.399,1.76c0.96,2.479,2.319,7.04,2.8,8.88c1.84-0.64,4.319-1.04,15.84-1.76c-4.8,1.76-8.8,3.12-10.88,3.76
	c-5.521,1.76-8.72,2.561-12.32,2.96c0.88,2.64,2.16,7.36,2.48,9.2c1.92-0.64,4.08-1.12,10.72-1.6c-4.24,3.439-11.44,6.56-18.08,8.56
	c2.48,1.84,6.64,5.84,8.64,8c4.721-2,10.16-4.88,14.801-8.16c1.359,2.72,2.72,6.24,3.199,8.88c5.841,0,10.48-0.16,14.32-1.68
	c3.92-1.6,4.96-4.48,4.96-9.52v-7.76L468.56,80.76z M453.6,88.52c6.16,3.36,14.72,8.48,18.64,11.761l9.04-6.72
	C476.64,90.2,467.92,85.48,462,82.52L453.6,88.52z M494.88,93h22.479c12.96,0,23.28-5.439,23.28-17.6c0-7.92-4.561-12.4-10.561-14
	v-0.32c4.801-1.84,7.761-7.6,7.761-12.88c0-11.44-9.84-14.8-22.16-14.8h-20.8V93z M509.199,57.08V44.36h5.92c6,0,8.801,1.76,8.801,6
	c0,4.08-2.721,6.72-8.801,6.72H509.199z M509.199,82.04V67.561h7.12c6.96,0,10.4,2,10.4,6.879c0,5.121-3.521,7.601-10.4,7.601
	H509.199z M553.865,93h37.601V81.48h-10.721V33.4h-10.479c-4.16,2.64-8.32,4.24-14.72,5.44v8.8h10.96v33.84h-12.641V93z
	 M658.775,75.08c3.36,7.92,7.601,18.48,9.36,24.8l10.319-4.319c-2.079-6.24-6.8-16.4-10.159-24L658.775,75.08z M659.414,48.12h4.561
	v11.36h-4.64c0.079-1.681,0.079-3.28,0.079-4.96V48.12z M610.055,52.04c1.359-2.48,2.64-5.6,3.84-8.96h0.96v8.96H610.055z
	 M674.454,59.48V37.4h-15.04V24.6h-10.8v12.8h-9.439v10.72h9.439v6.32c0,1.68,0,3.36-0.08,5.041h-10V70.2h8.88
	c-1.439,7.6-4.56,14.8-11.199,20.64V65.72h-9.36v16.96h-1.92v-20h11.68V52.04h-11.68v-8.96h9.68V32.52h-17.6
	c0.479-1.92,0.88-3.92,1.28-5.84l-10.24-2.08c-1.28,8.16-3.84,16.96-7.2,22.4c2.32,1.12,6.24,3.44,8.4,5.04h-6.561v10.64h12.16v20
	h-2V65.72h-9.04v26.96h23.04v2.561h9.36v-0.801c2.239,1.92,4.8,4.48,6.16,6.32c10.56-8.08,14.64-19.04,16.159-30.56h20V59.48
	H674.454z M747.895,51.88l-2.32,0.56h-20.479l5.76-2.96c-1.28-2.56-3.76-6.64-5.84-10c11.92-1.04,23.6-2.64,33.68-5.04l-8.88-9.84
	c-14.479,3.44-37.36,5.44-58.16,5.92c1.12,2.64,2.561,7.6,2.8,10.56c8.4-0.16,17.36-0.56,26.24-1.2l-6.64,3.12
	c1.52,2.88,3.52,6.48,4.88,9.44h-25.04v11.44h40.4c-7.44,6.4-17.521,12.88-27.36,17.36c-2.08-1.68-3.6-2.801-5.36-2.801
	c-3.52,0-9.279,3.761-15.199,11.44l8.96,11.92c1.68-5.28,3.84-12.319,5.76-12.319c1.6,0,4.8,3.359,8.72,5.84
	c5.92,3.76,12.24,4.96,23.44,4.96c8.88,0,20.88-0.561,26.8-0.96c0.16-3.12,2.08-9.28,3.439-12.32
	c-8.159,1.359-20.96,2.16-29.52,2.16c-6.4,0-11.76-0.24-16.24-1.52c14.641-7.601,29.28-18.561,38.8-29.601L747.895,51.88z
	 M784.135,82.28V68.52h10.479V82.28H784.135z M794.615,58.52h-10.479v-10.8h10.479V58.52z M822.775,36.84
	c1.12-3.12,2.16-6.24,3.04-9.36l-11.2-2.64c-2.08,8.32-5.52,16.96-9.52,23.44V37.64h-11.84c1.279-3.36,2.64-7.36,4-11.28
	l-12.721-1.76c-0.239,3.92-0.96,8.96-1.76,13.04h-9.12v60.48h10.48v-5.681h20.96V54.36c2.399,1.6,5.12,3.68,6.56,4.96
	c2.32-3.28,4.641-7.36,6.8-11.92h15.2c-0.64,26.4-1.6,38.161-3.92,40.64c-1.04,1.12-1.92,1.44-3.52,1.44c-2.16,0-6.96,0-12.08-0.48
	c2.08,3.2,3.68,8.16,3.84,11.28c4.8,0.159,9.76,0.239,12.96-0.32c3.52-0.64,6-1.601,8.479-5.12c3.36-4.4,4.16-17.359,5.12-52.96
	c0.08-1.36,0.08-5.04,0.08-5.04H822.775z M830.855,73.88c-2.4-4.72-7.6-12.319-11.2-17.76l-9.12,5.12
	c3.601,5.92,8.4,13.76,10.48,18.64L830.855,73.88z M875.414,65.641c-0.239,15.199-0.56,20.879-1.439,22.319
	c-0.64,0.96-1.28,1.2-2.32,1.2c-1.12,0-2.72,0-4.64-0.16c2.399-6.72,3.68-14.561,4.32-23.359H875.414z M871.815,55.16
	c0.08-2.64,0.16-5.36,0.16-8.08h11.84c2.48,1.52,6.24,4,8,5.6c2.24-2.48,4.48-5.68,6.561-9.2h31.039v-10.4h-26
	c0.801-2,1.521-4.08,2.16-6.16l-10.319-2.4c-1.841,6.32-4.801,12.72-8.48,17.76v-5.84h-12.399l4.479-1.52
	c-1.04-2.96-3.36-7.6-5.28-10.96l-10.399,3.36c1.359,2.8,2.96,6.32,3.92,9.12h-12.4v10.64h6.48c-0.16,19.68-0.48,34.96-8,45.12
	c2.72,1.76,6.16,5.6,7.76,8.319c2.4-3.039,4.24-6.479,5.68-10.319c1.2,2.64,2.08,6.239,2.24,8.88c3.44,0,6.64,0,8.72-0.48
	c2.4-0.479,4.16-1.359,5.84-3.84c2-2.88,2.4-12,2.641-35.359c0.08-1.28,0.08-4.24,0.08-4.24H871.815z M919.335,77.24l-6.561,3.359
	c0.4-1.119,0.8-2.24,1.04-3.359H919.335z M903.815,60.68v6.24h-6.72c1.6-1.76,3.28-3.84,4.8-6.24H903.815z M931.015,95.24
	c-2.4-4.721-7.44-12.32-11.04-18h9.76V66.92h-14.64v-6.24h12.24V50.6h-20.08c0.64-1.36,1.12-2.8,1.6-4.16l-10.4-2.48
	c-2,6.48-5.84,13.04-10.399,17.04c2.399,1.28,6.64,4.16,8.72,5.92h-7.439v10.32h12.96c-1.92,5.439-6.4,11.199-16.48,15.68
	c2.64,1.92,6.16,5.6,7.76,7.92c9.681-5.12,15.2-11.52,18.16-18c3.521,5.84,7.76,13.2,9.76,17.68L931.015,95.24z M964.295,78.84v8.24
	h-7.28v-8.24H964.295z M963.255,50.92v3.36h-4.721c0.16-1.12,0.32-2.24,0.4-3.36H963.255z M960.055,37.8h3.2v3.52h-3.44
	L960.055,37.8z M955.095,68.92c0.56-1.6,1.04-3.279,1.439-4.96h17.44V50.92h3.36v-9.6h-3.36v-13.2h-30.96v9.68h6.16
	c0,1.2-0.08,2.4-0.16,3.52h-10.64v9.6h9.84c-0.16,1.12-0.32,2.24-0.48,3.36h-5.12v9.68h2.8c-1.76,5.2-4.239,9.601-7.84,13.04
	c2.24,2,6.16,6.72,7.44,8.96c0.56-0.56,1.04-1.04,1.52-1.601v16.24h10.48V97h18.56V68.92H955.095z M1014.38,72.76h-13.92V66.2h10.8
	V55.64h-10.8v-5.28h12.399V39.88h-6.24c1.681-3.44,3.601-8.08,5.521-12.88l-11.28-2.48c-0.8,4.24-2.645,9.92-4.165,13.68l6.726,1.68
	h-15.926l4.801-1.76c-0.721-3.68-2.801-9.04-5.2-13.04l-9.28,3.2c1.92,3.52,3.521,8.08,4.32,11.6h-3.92v10.48h11.04v5.28h-10.08
	V66.2h10.08v6.56h-12.721v10.881h12.721v16.879h11.205V83.641h13.92V72.76z"/>
<path fill="#303030" d="M30.2,40.28H79.4v8.56h9.761v-17.2H61.48c-0.88-2.4-2.16-5.04-3.359-7.28l-10.08,2.16
	c0.8,1.52,1.6,3.36,2.319,5.12H20.92v17.2h9.28V40.28z M59.88,47.4c6.88,4.32,15.52,10.88,19.6,15.2l6.96-6.08
	c-4.399-4.4-13.279-10.56-20.08-14.48L59.88,47.4z M40.52,41.88c-4,5.44-11.04,10.64-18,13.68c1.84,1.76,4.96,5.52,6.4,7.36
	c7.359-4.08,15.439-10.88,20.56-18.08L40.52,41.88z M42.84,72.52c4.64-3.359,8.8-7.039,12.479-11.279
	c4.24,4.479,8.721,8.08,13.44,11.279H42.84z M41.24,89.4v-8.48H68.6v8.48H41.24z M53.32,49.24C46.04,61.4,32.28,70.359,17.48,75.4
	c2.24,2,4.561,5.359,5.92,7.68c2.96-1.2,5.761-2.48,8.561-3.92v20.88h9.28V97.8H68.6v2.16h9.76V78.2c2.641,1.36,5.28,2.64,8.16,3.92
	c1.2-2.8,3.76-5.92,5.92-7.92C80.04,69.641,69.24,64.04,60.28,54.76c0.48-0.64,0.881-1.36,1.28-2L53.32,49.24z M122.52,48.36h33.601
	v5.04H122.52V48.36z M122.52,36.28h33.601v4.96H122.52V36.28z M127.96,65.88c1.2-1.6,2.319-3.2,3.359-4.88h34.48V28.6h-52.64V61
	h7.04c-4.881,6.561-11.921,12.32-19.2,16.16c2,1.439,5.6,4.96,7.2,6.72c4.159-2.56,8.479-5.92,12.399-9.68h6.96
	c-5.04,7.12-12.319,13.28-20.16,17.2c2,1.52,5.521,4.88,7.04,6.8c8.96-5.521,17.92-14.08,23.84-24h6.881
	c-3.601,8.399-9.28,15.68-16,20.479c2.159,1.28,5.92,4.24,7.52,5.84c7.36-6.08,14.16-15.6,18.32-26.319h6.88
	c-1.12,10.8-2.72,15.68-4.24,17.12c-0.8,0.8-1.52,0.96-2.96,0.96c-1.439,0-4.56,0-7.92-0.32c1.44,2.24,2.4,5.681,2.48,8.08
	c4,0.08,7.76,0.08,10-0.16c2.479-0.239,4.56-0.96,6.479-3.04c2.64-2.64,4.48-9.92,6.16-27.199c0.16-1.201,0.32-3.761,0.32-3.761
	H127.96z"/>
</svg>
