<svg width="40" height="40" viewBox="0 0 40 50" fill="none" xmlns="http://www.w3.org/2000/svg">
<path fill-rule="evenodd" clip-rule="evenodd" d="M19.8156 12.8417C20.4862 11.6178 20.8674 10.2128 20.8674 8.71875C20.8674 3.97255 17.0199 0.125 12.2737 0.125C7.52747 0.125 3.67992 3.97255 3.67992 8.71875C3.67992 12.0583 5.58486 14.953 8.36742 16.3755V14.566C6.48306 13.3046 5.24242 11.1566 5.24242 8.71875C5.24242 4.8355 8.39041 1.6875 12.2737 1.6875C16.1569 1.6875 19.3049 4.8355 19.3049 8.71875C19.3049 10.1738 18.8629 11.5256 18.1059 12.6473C18.2432 12.6325 18.3826 12.625 18.5237 12.625C18.9774 12.625 19.412 12.7013 19.8156 12.8417ZM16.1799 12.5461C17.1465 11.5597 17.7424 10.2088 17.7424 8.71875C17.7424 5.69844 15.294 3.25 12.2737 3.25C9.25336 3.25 6.80492 5.69844 6.80492 8.71875C6.80492 10.2088 7.40086 11.5597 8.36742 12.5461V8.72029C8.36742 6.57645 10.1163 4.8125 12.2737 4.8125C14.4461 4.8125 16.1799 6.56208 16.1799 8.72029V12.5461ZM20.8674 16.517C20.8674 15.2305 19.8271 14.1875 18.5237 14.1875C17.2292 14.1875 16.1799 15.2441 16.1799 16.517V19.5508V23.5625H14.6174V19.6562V8.73224C14.6174 7.43037 13.5771 6.375 12.2737 6.375C10.9792 6.375 9.92992 7.41628 9.92992 8.73224V24.8099C6.71367 21.3718 2.47934 17.5924 0.74403 19.3371C-0.954673 21.0449 3.42267 25.7511 9.53519 36.0361C12.2893 40.6701 15.7741 43.8743 21.6487 43.875C28.1208 43.875 33.3674 38.6283 33.3674 32.1562V27.0731V19.6662C33.3674 18.3663 32.3271 17.3125 31.0237 17.3125C29.7292 17.3125 28.6799 18.3695 28.6799 19.6662V23.1714V23.5625H27.1174V19.9346V18.0801C27.1174 16.7932 26.0771 15.75 24.7737 15.75C23.4792 15.75 22.4299 16.7852 22.4299 18.0801V19.6691V22H20.8674V19.6691V16.517Z" fill="white"/>
</svg>
